<?xml version="1.0" encoding="UTF-8" standalone="no"?>
<!DOCTYPE svg PUBLIC "-//W3C//DTD SVG 1.1//EN"
 "http://www.w3.org/Graphics/SVG/1.1/DTD/svg11.dtd">
<!-- Generated by graphviz version 2.43.0 (0)
 -->
<!-- Title: %3 Pages: 1 -->
<svg width="710pt" height="548pt"
 viewBox="0.00 0.00 710.00 548.00" xmlns="http://www.w3.org/2000/svg" xmlns:xlink="http://www.w3.org/1999/xlink">
<g id="graph0" class="graph" transform="scale(1 1) rotate(0) translate(4 544)">
<title>%3</title>
<polygon fill="white" stroke="transparent" points="-4,4 -4,-544 706,-544 706,4 -4,4"/>
<!-- A -->
<g id="node1" class="node">
<title>A</title>
<ellipse fill="none" stroke="black" cx="675" cy="-306" rx="27" ry="18"/>
<text text-anchor="middle" x="675" y="-302.3" font-family="Times,serif" font-size="14.00">A</text>
</g>
<!-- C -->
<g id="node3" class="node">
<title>C</title>
<ellipse fill="none" stroke="black" cx="459" cy="-234" rx="27" ry="18"/>
<text text-anchor="middle" x="459" y="-230.3" font-family="Times,serif" font-size="14.00">C</text>
</g>
<!-- A&#45;&#45;C -->
<g id="edge4" class="edge">
<title>A&#45;&#45;C</title>
<path fill="none" stroke="black" d="M650.64,-297.88C609.05,-284.02 524.8,-255.93 483.27,-242.09"/>
<text text-anchor="middle" x="561.96" y="-273.79" font-family="Times,serif" font-size="14.00">4</text>
</g>
<!-- B -->
<g id="node2" class="node">
<title>B</title>
<ellipse fill="none" stroke="black" cx="531" cy="-450" rx="27" ry="18"/>
<text text-anchor="middle" x="531" y="-446.3" font-family="Times,serif" font-size="14.00">B</text>
</g>
<!-- B&#45;&#45;A -->
<g id="edge3" class="edge">
<title>B&#45;&#45;A</title>
<path fill="none" stroke="black" d="M546.14,-434.86C573.72,-407.28 631.88,-349.12 659.63,-321.37"/>
<text text-anchor="middle" x="597.88" y="-381.92" font-family="Times,serif" font-size="14.00">1</text>
</g>
<!-- G -->
<g id="node7" class="node">
<title>G</title>
<ellipse fill="none" stroke="black" cx="99" cy="-378" rx="27" ry="18"/>
<text text-anchor="middle" x="99" y="-374.3" font-family="Times,serif" font-size="14.00">G</text>
</g>
<!-- B&#45;&#45;G -->
<g id="edge1" class="edge">
<title>B&#45;&#45;G</title>
<path fill="none" stroke="black" d="M504.63,-445.6C427.41,-432.74 202.43,-395.24 125.3,-382.38"/>
<text text-anchor="middle" x="309.96" y="-417.79" font-family="Times,serif" font-size="14.00">4</text>
</g>
<!-- H -->
<g id="node8" class="node">
<title>H</title>
<ellipse fill="none" stroke="black" cx="243" cy="-522" rx="27" ry="18"/>
<text text-anchor="middle" x="243" y="-518.3" font-family="Times,serif" font-size="14.00">H</text>
</g>
<!-- B&#45;&#45;H -->
<g id="edge2" class="edge">
<title>B&#45;&#45;H</title>
<path fill="none" stroke="black" d="M505.69,-456.33C451.2,-469.95 323.28,-501.93 268.56,-515.61"/>
<text text-anchor="middle" x="382.13" y="-489.77" font-family="Times,serif" font-size="14.00">2</text>
</g>
<!-- C&#45;&#45;B -->
<g id="edge5" class="edge">
<title>C&#45;&#45;B</title>
<path fill="none" stroke="black" d="M464.89,-251.68C478.43,-292.28 511.61,-391.83 525.13,-432.38"/>
<text text-anchor="middle" x="490.01" y="-345.83" font-family="Times,serif" font-size="14.00">2</text>
</g>
<!-- D -->
<g id="node4" class="node">
<title>D</title>
<ellipse fill="none" stroke="black" cx="243" cy="-234" rx="27" ry="18"/>
<text text-anchor="middle" x="243" y="-230.3" font-family="Times,serif" font-size="14.00">D</text>
</g>
<!-- C&#45;&#45;D -->
<g id="edge6" class="edge">
<title>C&#45;&#45;D</title>
<path fill="none" stroke="black" d="M431.64,-234C390.09,-234 311.55,-234 270.13,-234"/>
<text text-anchor="middle" x="345.89" y="-237.8" font-family="Times,serif" font-size="14.00">1</text>
</g>
<!-- E -->
<g id="node5" class="node">
<title>E</title>
<ellipse fill="none" stroke="black" cx="243" cy="-18" rx="27" ry="18"/>
<text text-anchor="middle" x="243" y="-14.3" font-family="Times,serif" font-size="14.00">E</text>
</g>
<!-- C&#45;&#45;E -->
<g id="edge7" class="edge">
<title>C&#45;&#45;E</title>
<path fill="none" stroke="black" d="M443.81,-218.81C404.15,-179.15 297.81,-72.81 258.17,-33.17"/>
<text text-anchor="middle" x="345.99" y="-129.79" font-family="Times,serif" font-size="14.00">3</text>
</g>
<!-- D&#45;&#45;B -->
<g id="edge8" class="edge">
<title>D&#45;&#45;B</title>
<path fill="none" stroke="black" d="M261.02,-247.51C312.74,-286.3 461.28,-397.71 512.99,-436.49"/>
<text text-anchor="middle" x="382" y="-345.8" font-family="Times,serif" font-size="14.00">9</text>
</g>
<!-- E&#45;&#45;D -->
<g id="edge12" class="edge">
<title>E&#45;&#45;D</title>
<path fill="none" stroke="black" d="M243,-36.04C243,-76.7 243,-175.1 243,-215.85"/>
<text text-anchor="middle" x="238" y="-129.75" font-family="Times,serif" font-size="14.00">1</text>
</g>
<!-- F -->
<g id="node6" class="node">
<title>F</title>
<ellipse fill="none" stroke="black" cx="27" cy="-90" rx="27" ry="18"/>
<text text-anchor="middle" x="27" y="-86.3" font-family="Times,serif" font-size="14.00">F</text>
</g>
<!-- F&#45;&#45;D -->
<g id="edge10" class="edge">
<title>F&#45;&#45;D</title>
<path fill="none" stroke="black" d="M46.17,-102.78C87.16,-130.11 182.92,-193.95 223.87,-221.25"/>
<text text-anchor="middle" x="130.02" y="-165.81" font-family="Times,serif" font-size="14.00">3</text>
</g>
<!-- F&#45;&#45;E -->
<g id="edge9" class="edge">
<title>F&#45;&#45;E</title>
<path fill="none" stroke="black" d="M51.36,-81.88C92.95,-68.02 177.2,-39.93 218.73,-26.09"/>
<text text-anchor="middle" x="130.04" y="-57.79" font-family="Times,serif" font-size="14.00">1</text>
</g>
<!-- F&#45;&#45;G -->
<g id="edge11" class="edge">
<title>F&#45;&#45;G</title>
<path fill="none" stroke="black" d="M31.5,-108.02C44.43,-159.74 81.57,-308.28 94.5,-359.99"/>
<text text-anchor="middle" x="58" y="-237.8" font-family="Times,serif" font-size="14.00">6</text>
</g>
<!-- G&#45;&#45;D -->
<g id="edge14" class="edge">
<title>G&#45;&#45;D</title>
<path fill="none" stroke="black" d="M114.14,-362.86C141.72,-335.28 199.88,-277.12 227.63,-249.37"/>
<text text-anchor="middle" x="165.88" y="-309.92" font-family="Times,serif" font-size="14.00">1</text>
</g>
<!-- G&#45;&#45;H -->
<g id="edge13" class="edge">
<title>G&#45;&#45;H</title>
<path fill="none" stroke="black" d="M114.14,-393.14C141.72,-420.72 199.88,-478.88 227.63,-506.63"/>
<text text-anchor="middle" x="161.38" y="-453.68" font-family="Times,serif" font-size="14.00">14</text>
</g>
</g>
</svg>
